<svg xmlns="http://www.w3.org/2000/svg" width="1440" height="900"><path d="M776,421L598,223L652,467Z" fill="#8ac883" stroke="#8ac883" stroke-width="1.51"/><path d="M776,421L857,122L598,223Z" fill="#95d089" stroke="#95d089" stroke-width="1.51"/><path d="M598,223L326,497L652,467Z" fill="#94cf89" stroke="#94cf89" stroke-width="1.51"/><path d="M593,7L364,201L598,223Z" fill="#bbe5a4" stroke="#bbe5a4" stroke-width="1.51"/><path d="M857,122L593,7L598,223Z" fill="#afdba0" stroke="#afdba0" stroke-width="1.51"/><path d="M652,467L703,698L776,421Z" fill="#6cb976" stroke="#6cb976" stroke-width="1.51"/><path d="M1093,256L976,59L857,122Z" fill="#8dcf8f" stroke="#8dcf8f" stroke-width="1.51"/><path d="M447,704L703,698L652,467Z" fill="#67bb75" stroke="#67bb75" stroke-width="1.51"/><path d="M364,201L326,497L598,223Z" fill="#abde95" stroke="#abde95" stroke-width="1.51"/><path d="M857,122L792,-75L593,7Z" fill="#b7dcae" stroke="#b7dcae" stroke-width="1.51"/><path d="M1093,256L857,122L776,421Z" fill="#82c981" stroke="#82c981" stroke-width="1.51"/><path d="M703,698L789,744L776,421Z" fill="#56b26d" stroke="#56b26d" stroke-width="1.51"/><path d="M688,865L789,744L703,698Z" fill="#4fb06a" stroke="#4fb06a" stroke-width="1.51"/><path d="M976,59L792,-75L857,122Z" fill="#a8d7a5" stroke="#a8d7a5" stroke-width="1.51"/><path d="M1158,448L1093,256L776,421Z" fill="#65ba74" stroke="#65ba74" stroke-width="1.51"/><path d="M326,497L447,704L652,467Z" fill="#7fc67f" stroke="#7fc67f" stroke-width="1.51"/><path d="M326,497L205,503L447,704Z" fill="#8cce88" stroke="#8cce88" stroke-width="1.51"/><path d="M174,271L205,503L326,497Z" fill="#abda9c" stroke="#abda9c" stroke-width="1.51"/><path d="M1135,710L1158,448L776,421Z" fill="#47ae68" stroke="#47ae68" stroke-width="1.51"/><path d="M364,201L174,271L326,497Z" fill="#b6e39e" stroke="#b6e39e" stroke-width="1.51"/><path d="M314,-49L174,271L364,201Z" fill="#d2f1b5" stroke="#d2f1b5" stroke-width="1.51"/><path d="M593,7L314,-49L364,201Z" fill="#d1efb9" stroke="#d1efb9" stroke-width="1.51"/><path d="M298,-161L314,-49L593,7Z" fill="#dbf3c3" stroke="#dbf3c3" stroke-width="1.51"/><path d="M789,744L1135,710L776,421Z" fill="#42ad67" stroke="#42ad67" stroke-width="1.51"/><path d="M447,704L688,865L703,698Z" fill="#5cb770" stroke="#5cb770" stroke-width="1.51"/><path d="M1158,448L1216,289L1093,256Z" fill="#65bc74" stroke="#65bc74" stroke-width="1.51"/><path d="M1093,256L1333,-75L976,59Z" fill="#8dce94" stroke="#8dce94" stroke-width="1.51"/><path d="M792,-75L689,-217L593,7Z" fill="#c0e0b3" stroke="#c0e0b3" stroke-width="1.51"/><path d="M929,-244L689,-217L792,-75Z" fill="#b4dbae" stroke="#b4dbae" stroke-width="1.51"/><path d="M929,-244L792,-75L976,59Z" fill="#abd8a9" stroke="#abd8a9" stroke-width="1.51"/><path d="M688,865L856,884L789,744Z" fill="#48ae67" stroke="#48ae67" stroke-width="1.51"/><path d="M856,884L1135,710L789,744Z" fill="#31a961" stroke="#31a961" stroke-width="1.51"/><path d="M1158,448L1362,547L1216,289Z" fill="#54b26b" stroke="#54b26b" stroke-width="1.51"/><path d="M314,-49L181,-94L174,271Z" fill="#e5f7cc" stroke="#e5f7cc" stroke-width="1.51"/><path d="M689,-217L298,-161L593,7Z" fill="#cfebbc" stroke="#cfebbc" stroke-width="1.51"/><path d="M1146,-281L929,-244L976,59Z" fill="#9fd4a4" stroke="#9fd4a4" stroke-width="1.51"/><path d="M447,704L360,903L688,865Z" fill="#68be74" stroke="#68be74" stroke-width="1.51"/><path d="M688,865L649,1123L856,884Z" fill="#4eb068" stroke="#4eb068" stroke-width="1.51"/><path d="M210,872L360,903L447,704Z" fill="#78c87d" stroke="#78c87d" stroke-width="1.51"/><path d="M298,-161L181,-94L314,-49Z" fill="#e8f8cf" stroke="#e8f8cf" stroke-width="1.51"/><path d="M1135,710L1227,725L1158,448Z" fill="#20a65e" stroke="#20a65e" stroke-width="1.51"/><path d="M1160,836L1227,725L1135,710Z" fill="#00a35a" stroke="#00a35a" stroke-width="1.51"/><path d="M205,503L210,872L447,704Z" fill="#7ec984" stroke="#7ec984" stroke-width="1.51"/><path d="M174,271L50,617L205,503Z" fill="#aed9a2" stroke="#aed9a2" stroke-width="1.51"/><path d="M-169,539L50,617L174,271Z" fill="#b7dcae" stroke="#b7dcae" stroke-width="1.51"/><path d="M856,884L1160,836L1135,710Z" fill="#11a45c" stroke="#11a45c" stroke-width="1.51"/><path d="M50,617L210,872L205,503Z" fill="#8cce92" stroke="#8cce92" stroke-width="1.51"/><path d="M1485,449L1362,547L1605,779Z" fill="#2da85e" stroke="#2da85e" stroke-width="1.51"/><path d="M1227,725L1362,547L1158,448Z" fill="#32a961" stroke="#32a961" stroke-width="1.51"/><path d="M1333,-75L1146,-281L976,59Z" fill="#99d2a1" stroke="#99d2a1" stroke-width="1.51"/><path d="M1333,-75L1093,256L1216,289Z" fill="#81ca87" stroke="#81ca87" stroke-width="1.51"/><path d="M-58,-326L120,-221L689,-217Z" fill="#e9f8d0" stroke="#e9f8d0" stroke-width="1.51"/><path d="M1499,252L1333,-75L1216,289Z" fill="#81ca86" stroke="#81ca86" stroke-width="1.51"/><path d="M181,-94L-65,-64L174,271Z" fill="#f1fbda" stroke="#f1fbda" stroke-width="1.51"/><path d="M298,-161L120,-221L181,-94Z" fill="#edfad6" stroke="#edfad6" stroke-width="1.51"/><path d="M689,-217L120,-221L298,-161Z" fill="#def5c4" stroke="#def5c4" stroke-width="1.51"/><path d="M-58,-326L689,-217L929,-244Z" fill="#cfebbc" stroke="#cfebbc" stroke-width="1.51"/><path d="M856,884L1060,1079L1160,836Z" fill="#1aa55c" stroke="#1aa55c" stroke-width="1.51"/><path d="M404,1102L649,1123L688,865Z" fill="#5fb96f" stroke="#5fb96f" stroke-width="1.51"/><path d="M404,1102L688,865L360,903Z" fill="#69bf73" stroke="#69bf73" stroke-width="1.51"/><path d="M138,1138L404,1102L360,903Z" fill="#7cc97f" stroke="#7cc97f" stroke-width="1.51"/><path d="M1362,547L1485,449L1216,289Z" fill="#54b26a" stroke="#54b26a" stroke-width="1.51"/><path d="M1314,853L1362,547L1227,725Z" fill="#00a35a" stroke="#00a35a" stroke-width="1.51"/><path d="M1160,836L1314,853L1227,725Z" fill="#00a359" stroke="#00a359" stroke-width="1.51"/><path d="M1217,1082L1314,853L1160,836Z" fill="#00a358" stroke="#00a358" stroke-width="1.51"/><path d="M1485,449L1499,252L1216,289Z" fill="#65bc72" stroke="#65bc72" stroke-width="1.51"/><path d="M120,-221L-65,-64L181,-94Z" fill="#f8fde2" stroke="#f8fde2" stroke-width="1.51"/><path d="M839,1216L1060,1079L856,884Z" fill="#32a960" stroke="#32a960" stroke-width="1.51"/><path d="M50,617L-43,776L210,872Z" fill="#92d099" stroke="#92d099" stroke-width="1.51"/><path d="M210,872L138,1138L360,903Z" fill="#82cb86" stroke="#82cb86" stroke-width="1.51"/><path d="M-169,539L-43,776L50,617Z" fill="#9ed4a3" stroke="#9ed4a3" stroke-width="1.51"/><path d="M-43,776L-35,823L210,872Z" fill="#94d19b" stroke="#94d19b" stroke-width="1.51"/><path d="M-43,776L-284,980L-35,823Z" fill="#99d29f" stroke="#99d29f" stroke-width="1.51"/><path d="M-185,142L-169,539L174,271Z" fill="#d1ecbd" stroke="#d1ecbd" stroke-width="1.51"/><path d="M-65,-64L-185,142L174,271Z" fill="#effad7" stroke="#effad7" stroke-width="1.51"/><path d="M649,1123L839,1216L856,884Z" fill="#48ae66" stroke="#48ae66" stroke-width="1.51"/><path d="M404,1102L839,1216L649,1123Z" fill="#59b66d" stroke="#59b66d" stroke-width="1.51"/><path d="M1146,-281L-58,-326L929,-244Z" fill="#c1e1b5" stroke="#c1e1b5" stroke-width="1.51"/><path d="M1333,-75L1337,-295L1146,-281Z" fill="#99d2a0" stroke="#99d2a0" stroke-width="1.51"/><path d="M1600,-149L1337,-295L1333,-75Z" fill="#99d29e" stroke="#99d29e" stroke-width="1.51"/><path d="M1060,1079L1217,1082L1160,836Z" fill="#00a359" stroke="#00a359" stroke-width="1.51"/><path d="M839,1216L1217,1082L1060,1079Z" fill="#16a55b" stroke="#16a55b" stroke-width="1.51"/><path d="M1755,180L1584,39L1499,252Z" fill="#81ca85" stroke="#81ca85" stroke-width="1.51"/><path d="M1499,252L1584,39L1333,-75Z" fill="#8ecf93" stroke="#8ecf93" stroke-width="1.51"/><path d="M-169,539L-284,654L-43,776Z" fill="#9cd3a3" stroke="#9cd3a3" stroke-width="1.51"/><path d="M-185,142L-288,383L-169,539Z" fill="#cbe8ba" stroke="#cbe8ba" stroke-width="1.51"/><path d="M404,1102L138,1138L839,1216Z" fill="#6cc175" stroke="#6cc175" stroke-width="1.51"/><path d="M-35,823L138,1138L210,872Z" fill="#8fcf94" stroke="#8fcf94" stroke-width="1.51"/><path d="M-79,1184L138,1138L-35,823Z" fill="#98d29d" stroke="#98d29d" stroke-width="1.51"/><path d="M-185,142L-295,282L-288,383Z" fill="#d8f1c1" stroke="#d8f1c1" stroke-width="1.51"/><path d="M-390,-100L-295,282L-185,142Z" fill="#f0fbd8" stroke="#f0fbd8" stroke-width="1.51"/><path d="M120,-221L-58,-326L-65,-64Z" fill="#ffffeb" stroke="#ffffeb" stroke-width="1.51"/><path d="M-65,-64L-390,-100L-185,142Z" fill="#ffffeb" stroke="#ffffeb" stroke-width="1.51"/><path d="M1337,-295L-58,-326L1146,-281Z" fill="#b4dbae" stroke="#b4dbae" stroke-width="1.51"/><path d="M-288,383L-284,654L-169,539Z" fill="#b1daac" stroke="#b1daac" stroke-width="1.51"/><path d="M-390,-100L-284,654L-288,383Z" fill="#d1ecbe" stroke="#d1ecbe" stroke-width="1.51"/><path d="M1599,995L1605,779L1314,853Z" fill="#00a357" stroke="#00a357" stroke-width="1.51"/><path d="M1314,853L1605,779L1362,547Z" fill="#00a359" stroke="#00a359" stroke-width="1.51"/><path d="M1818,467L1755,180L1499,252Z" fill="#69c074" stroke="#69c074" stroke-width="1.51"/><path d="M1724,-159L1600,-149L1584,39Z" fill="#99d29e" stroke="#99d29e" stroke-width="1.51"/><path d="M1584,39L1600,-149L1333,-75Z" fill="#99d29e" stroke="#99d29e" stroke-width="1.51"/><path d="M1605,779L1706,606L1485,449Z" fill="#26a75e" stroke="#26a75e" stroke-width="1.51"/><path d="M1818,467L1499,252L1485,449Z" fill="#5bb66d" stroke="#5bb66d" stroke-width="1.51"/><path d="M138,1138L-79,1184L839,1216Z" fill="#7cc980" stroke="#7cc980" stroke-width="1.51"/><path d="M-284,980L-79,1184L-35,823Z" fill="#99d29e" stroke="#99d29e" stroke-width="1.51"/><path d="M1605,779L1664,927L1706,606Z" fill="#00a358" stroke="#00a358" stroke-width="1.51"/><path d="M1479,1170L1599,995L1314,853Z" fill="#00a356" stroke="#00a356" stroke-width="1.51"/><path d="M1479,1170L1314,853L1217,1082Z" fill="#00a357" stroke="#00a357" stroke-width="1.51"/><path d="M-295,282L-390,-100L-288,383Z" fill="#e4f7cb" stroke="#e4f7cb" stroke-width="1.51"/><path d="M-356,-261L-390,-100L-65,-64Z" fill="#ffffeb" stroke="#ffffeb" stroke-width="1.51"/><path d="M1706,606L1818,467L1485,449Z" fill="#43ad64" stroke="#43ad64" stroke-width="1.51"/><path d="M1832,1056L1818,467L1706,606Z" fill="#00a359" stroke="#00a359" stroke-width="1.51"/><path d="M1599,995L1664,927L1605,779Z" fill="#00a356" stroke="#00a356" stroke-width="1.51"/><path d="M-284,654L-284,980L-43,776Z" fill="#99d2a0" stroke="#99d2a0" stroke-width="1.51"/><path d="M-341,1142L-284,980L-284,654Z" fill="#99d29e" stroke="#99d29e" stroke-width="1.51"/><path d="M1600,-149L1724,-159L1337,-295Z" fill="#99d29e" stroke="#99d29e" stroke-width="1.51"/><path d="M1804,49L1724,-159L1584,39Z" fill="#99d29e" stroke="#99d29e" stroke-width="1.51"/><path d="M1804,49L1584,39L1755,180Z" fill="#8bce90" stroke="#8bce90" stroke-width="1.51"/><path d="M1599,995L1832,1056L1664,927Z" fill="#00a356" stroke="#00a356" stroke-width="1.51"/><path d="M839,1216L1479,1170L1217,1082Z" fill="#00a358" stroke="#00a358" stroke-width="1.51"/><path d="M1818,467L1804,49L1755,180Z" fill="#75c779" stroke="#75c779" stroke-width="1.51"/><path d="M-58,-326L-356,-261L-65,-64Z" fill="#ffffeb" stroke="#ffffeb" stroke-width="1.51"/><path d="M-284,980L-341,1142L-79,1184Z" fill="#99d29e" stroke="#99d29e" stroke-width="1.51"/><path d="M-390,-100L-341,1142L-284,654Z" fill="#abd8a9" stroke="#abd8a9" stroke-width="1.51"/><path d="M1479,1170L1832,1056L1599,995Z" fill="#00a356" stroke="#00a356" stroke-width="1.51"/><path d="M1664,927L1832,1056L1706,606Z" fill="#00a357" stroke="#00a357" stroke-width="1.51"/></svg>